<svg xmlns="http://www.w3.org/2000/svg" viewBox="0 0 206.34 168.13"><defs><style>.cls-1{fill:#171614;stroke:#171614;stroke-miterlimit:10;stroke-width:0.25px;}</style></defs><g id="Livello_2" data-name="Livello 2"><g id="Livello_1-2" data-name="Livello 1"><path class="cls-1" d="M197.63,29.47A67.31,67.31,0,0,0,168.82,3.22a29.88,29.88,0,0,0-15.34-3c-3.67.28-6.53,2.26-7.65,5.31-2.23,6.07-4.2,18.42-5.76,29.17a49.7,49.7,0,0,0-5-5c-2.49-2.13-8.35-5.74-12.24-6.76-4.93-1.3-13.6,0-16.94,1-7.85,2.24-26.51,13.38-29,14.87s-21.51,12-27.37,17.67c-2.49,2.42-8,9.28-9.31,14.19-1,3.88-.86,10.76-.25,14A45.5,45.5,0,0,0,42.07,92c-10.3-4.31-21.92-9-28.28-10.12-3.19-.55-6.34.93-8.42,4a29.88,29.88,0,0,0-5.06,14.8,66.88,66.88,0,0,0,8.4,38.05,67.31,67.31,0,0,0,28.81,26.25,29.88,29.88,0,0,0,15.34,3,9.92,9.92,0,0,0,4.2-1.24,7.75,7.75,0,0,0,3.45-4.07c2.24-6.09,4.21-18.49,5.77-29.27a51.84,51.84,0,0,0,4.32,4.26c2.49,2.13,8.36,5.74,12.24,6.76,4.93,1.3,13.61,0,16.94-1,7.85-2.24,26.51-13.38,29-14.87.71-.39,2.69-1.49,5.31-3,6.79-3.91,17.84-10.56,22.06-14.66,2.5-2.41,8-9.27,9.31-14.19,1.06-3.88.86-10.76.26-14A49.48,49.48,0,0,0,163.9,76c10.39,4.35,22.21,9.16,28.65,10.28a7.83,7.83,0,0,0,5.25-1,9.93,9.93,0,0,0,3.17-3A29.88,29.88,0,0,0,206,67.52,66.85,66.85,0,0,0,197.63,29.47ZM52.25,156.18a2.68,2.68,0,0,1-2.76,2,20.62,20.62,0,0,1-7.7-2.08A60.32,60.32,0,0,1,23.15,142a46.77,46.77,0,0,1-5.86-8l-.08-.17-.13-.2a46.69,46.69,0,0,1-4-9.08,59.6,59.6,0,0,1-2.95-23.17,20.81,20.81,0,0,1,2-7.69,2.67,2.67,0,0,1,3.14-1.38c7,2,18.68,6.92,26.81,10.34,2.54,1.07,4.85,2,6.77,2.82a3.22,3.22,0,0,1,1.58,1.38l.26.45a1.46,1.46,0,0,1-.38,1.9c-4.52,3.43-10.3,9.8-13.44,21.09a4.9,4.9,0,0,0,3.85,6.13h0a4.88,4.88,0,0,0,5.58-3.49,31.3,31.3,0,0,1,7.52-13.82c.37-.37.72-.71,1.07-1a1.46,1.46,0,0,1,2.24.36l.56,1a3.15,3.15,0,0,1,.4,2.08c-.2,1.42-.43,3-.68,4.76C56.18,134.88,54.23,148.59,52.25,156.18Zm102-78a30,30,0,0,1,1.87,6.28,31.28,31.28,0,0,1-.08,9.6c-.62,2.25-4.34,7.48-6.67,9.73-4.23,4.1-19.76,13.07-25.38,16.18l-.08,0-.07,0c-5.51,3.32-21,12.27-26.7,13.89-3.12.89-9.51,1.5-11.77.91A31.2,31.2,0,0,1,77,130.16a29.64,29.64,0,0,1-4.5-4.76l-21-36.34a29.72,29.72,0,0,1-1.88-6.28,31,31,0,0,1,.09-9.6c.61-2.25,4.33-7.47,6.66-9.73,4.24-4.1,19.76-13.07,25.38-16.18l.08,0,.08,0c5.5-3.32,21-12.27,26.7-13.89,3.12-.89,9.51-1.5,11.76-.91a31.32,31.32,0,0,1,8.35,4.73,30.22,30.22,0,0,1,4.51,4.76Zm39.1-34.57a59.6,59.6,0,0,1,2.95,23.17,20.81,20.81,0,0,1-2,7.69,2.67,2.67,0,0,1-3.14,1.38c-7-2-18.68-6.92-26.81-10.34-2.62-1.1-5-2.1-7-2.89a3.23,3.23,0,0,1-1.58-1.38l-.18-.31a1.46,1.46,0,0,1,.39-1.9c4.53-3.41,10.37-9.79,13.53-21.16a4.9,4.9,0,0,0-3.85-6.13h0a4.88,4.88,0,0,0-5.58,3.49,31.3,31.3,0,0,1-7.52,13.82q-.6.6-1.17,1.11a1.46,1.46,0,0,1-2.23-.37l-.5-.87a3.15,3.15,0,0,1-.4-2.08l.71-4.95c1.22-8.67,3.17-22.39,5.15-30a2.68,2.68,0,0,1,2.76-2,20.62,20.62,0,0,1,7.7,2.08,60.2,60.2,0,0,1,18.64,14.14,46.77,46.77,0,0,1,5.86,8l.08.17.13.2A46,46,0,0,1,193.31,43.64Z"/><path class="cls-1" d="M88.55,124.87h0a5.34,5.34,0,0,1-3.78-6.54L88.08,106l-13-3.48A5.32,5.32,0,0,1,71.32,96h0a5.33,5.33,0,0,1,6.53-3.78L96,97.06a5.35,5.35,0,0,1,3.77,6.54l-4.69,17.5A5.34,5.34,0,0,1,88.55,124.87Z"/><rect class="cls-1" x="107.39" y="96.45" width="36.22" height="10.67" rx="5.34" transform="translate(-34.08 76.39) rotate(-30)"/><circle class="cls-1" cx="115.1" cy="45.36" r="5.34"/><path class="cls-1" d="M118.27,49.68A5.36,5.36,0,1,1,120,43.2,5.36,5.36,0,0,1,118.27,49.68ZM113,40.5a5.31,5.31,0,1,0,6.43,1.72A5.32,5.32,0,0,0,113,40.5Z"/><circle class="cls-1" cx="101.24" cy="53.36" r="5.34"/><path class="cls-1" d="M104.41,57.69a5.36,5.36,0,1,1,1.73-6.49A5.38,5.38,0,0,1,104.41,57.69ZM99.1,48.5a5.31,5.31,0,1,0,6.43,1.72A5.32,5.32,0,0,0,99.1,48.5Z"/><circle class="cls-1" cx="87.38" cy="61.37" r="5.34"/><path class="cls-1" d="M90.54,65.69a5.36,5.36,0,1,1,1.74-6.48A5.36,5.36,0,0,1,90.54,65.69Zm-5.3-9.19a5.31,5.31,0,1,0,6.42,1.73A5.33,5.33,0,0,0,85.24,56.5Z"/></g></g></svg>